<svg xmlns="http://www.w3.org/2000/svg" version="1.1" xmlns:xlink="http://www.w3.org/1999/xlink" width="228" height="228"><svg width="228" height="228" viewBox="0 0 228 228" fill="none" xmlns="http://www.w3.org/2000/svg">
<path fill-rule="evenodd" clip-rule="evenodd" d="M114 0C176.961 0 228 51.0395 228 114C228 176.961 176.961 228 114 228C51.0395 228 0 176.961 0 114C0.000145255 51.0396 51.0396 0.000145274 114 0ZM114 19.1531C61.617 19.1532 19.1532 61.617 19.1531 114C19.1531 134.914 25.9271 154.242 37.393 169.923V140.924C37.393 131.433 37.3923 126.688 38.4762 122.229C39.4372 118.276 41.0216 114.5 43.1703 111.046C45.594 107.149 48.9812 103.825 55.7558 97.1783L62.2815 90.7756C72.5149 80.7352 77.6328 75.714 82.018 75.3982C85.8238 75.1242 89.533 76.6814 92.0028 79.5899C94.8481 82.9414 94.8469 90.1113 94.8469 104.447V197.449C94.8478 202.704 99.0821 206.969 104.324 207.023H104.52C109.599 206.973 113.732 202.969 113.987 197.941L114 197.449V65.8661C114 51.3578 113.999 44.1029 116.868 40.7448C119.357 37.831 123.092 36.2855 126.913 36.5871C131.315 36.9353 136.444 42.0662 146.699 52.3282L172.671 78.3183C179.29 84.9422 182.602 88.2561 184.968 92.1205C187.067 95.5465 188.612 99.2819 189.55 103.188C190.607 107.595 190.607 112.277 190.607 121.64V169.923C202.074 154.242 208.85 134.914 208.85 114C208.849 61.6169 166.383 19.1531 114 19.1531Z" fill="#292B31"></path>
</svg><style>@media (prefers-color-scheme: light) { :root { filter: none; } }
@media (prefers-color-scheme: dark) { :root { filter: none; } }
</style></svg>