<svg xmlns="http://www.w3.org/2000/svg" width="63" height="64" fill="none"><path fill="#292B31" d="M31.553.5C48.85.5 62.872 14.522 62.872 31.82c0 17.296-14.022 31.318-31.319 31.318S.234 49.116.233 31.819C.234 14.522 14.257.5 31.554.5m10.464 16.54c-5.285-.41-7.009 1.803-9.43 14.562-.01-.046-.77-3.605-6.063-9.622-5.327-6.055-8.154-4.784-10.612-2.148-3.004 3.217-1.804 9.114.477 14.509 1.45 3.431 5.279 9.651 10.135 12.532 6.697 3.97 15.915 1.761 20.093-10.661 4.336-12.887-.468-18.851-4.6-19.172"/></svg>