<svg xmlns="http://www.w3.org/2000/svg" width="63" height="64" fill="none"><path fill="#292B31" d="M31.345.5c17.297 0 31.32 14.022 31.32 31.32 0 17.296-14.023 31.318-31.32 31.318S.025 49.116.025 31.819 14.049.5 31.346.5m.612 12.497c-9.875 0-17.748 8.212-17.748 18.154 0 10.616 8.838 19.501 20.124 19.501 5.398 0 10.35-2.044 14.13-5.407l-2.836-3.274c-3.03 2.697-6.983 4.324-11.297 4.324-9.047 0-15.827-7.066-15.827-15.144 0-7.595 6.006-13.797 13.451-13.797 7.027 0 12.098 5.494 12.098 11.443 0 5.576-4.363 10.1-9.722 10.1-4.903 0-8.364-3.747-8.364-7.746 0-3.589 2.753-6.398 5.991-6.398 2.866 0 4.634 2.107 4.634 4.044 0 1.681-1.173 2.697-2.26 2.697-.385 0-.532-.082-.686-.179.35-.454.523-1.046.435-1.662-.174-1.19-1.266-2.011-2.44-1.835-1.006.152-1.645.842-1.961 1.354a3.75 3.75 0 0 0-.549 1.98c0 2.853 2.638 4.698 5.2 4.699 3.743.002 6.557-3.294 6.557-7.054 0-4.603-3.955-8.4-8.93-8.4-5.778 0-10.287 4.932-10.287 10.754 0 6.597 5.577 12.099 12.663 12.099 7.833 0 14.018-6.578 14.018-14.456 0-8.47-7.111-15.797-16.394-15.797"/></svg>