<svg xmlns="http://www.w3.org/2000/svg" width="64" height="64" fill="none"><path fill="#292B31" d="M31.75.5c17.397 0 31.5 14.103 31.5 31.5s-14.103 31.5-31.5 31.5a31.36 31.36 0 0 1-19.355-6.647c8.95-3.4 17.28-12.378 23.583-23.925H20.59l-3.026 4.904h7.706c-4.193 6.098-8.506 9.859-11.149 9.859-3.182 0-1.93-6.417 3.026-15.076 5.008-8.711 10.902-15.128 14.345-15.128 2.66 0 1.93 6.208-1.513 12.364h7.199c7.824-16.536 1.878-22.952-4.851-22.953-10.903 0-23.161 11.007-30.881 25.144q-.593 1.085-1.12 2.146A32 32 0 0 1 .25 32C.25 14.603 14.353.5 31.75.5m22.068 23.195c-6.52 0-13.928 5.895-17.892 13.98-4.07 8.033-2.765 13.876 4.016 13.876 6.99 0 13.876-5.79 17.84-13.876 4.07-8.19 2.609-13.98-3.964-13.98m-.835 6.416c1.565 0 1.252 3.13-1.356 7.512-2.556 4.225-5.32 7.46-7.042 7.46-1.617 0-1.304-3.13 1.356-7.46 2.556-4.278 5.32-7.511 7.042-7.511"/></svg>