<svg width="144" height="22" viewBox="0 0 144 22" fill="none" xmlns="http://www.w3.org/2000/svg">
<path fill-rule="evenodd" clip-rule="evenodd" d="M32.3981 0.74939C38.0782 0.74939 42.6828 5.33874 42.6828 11C42.6828 16.6613 38.0782 21.2506 32.3981 21.2506C26.7181 21.2506 22.1135 16.6613 22.1135 11C22.1135 5.33875 26.7181 0.749403 32.3981 0.74939ZM32.3981 2.47159C27.6723 2.4716 23.8414 6.28984 23.8414 11C23.8414 12.8805 24.4525 14.6185 25.4869 16.0285V13.421C25.4869 12.5676 25.4869 12.1409 25.5847 11.7399C25.6714 11.3845 25.8143 11.045 26.0081 10.7344C26.2268 10.384 26.5324 10.0851 27.1436 9.48743L27.7323 8.91172C28.6555 8.0089 29.1172 7.55741 29.5128 7.52902C29.8562 7.50438 30.1908 7.6444 30.4136 7.90592C30.6703 8.20728 30.6702 8.85198 30.6702 10.141V18.5036C30.6703 18.976 31.0523 19.3596 31.5252 19.3644H31.5429C32.0011 19.3599 32.3739 18.9999 32.397 18.5478L32.3981 18.5036V6.67192C32.3981 5.36736 32.3981 4.71502 32.6569 4.41306C32.8814 4.15106 33.2184 4.0121 33.5631 4.03921C33.9603 4.07052 34.4229 4.53188 35.3481 5.45461L37.6912 7.79158C38.2884 8.38719 38.5871 8.68517 38.8007 9.03265C38.99 9.3407 39.1294 9.67658 39.214 10.0279C39.3094 10.4241 39.3094 10.845 39.3094 11.687V16.0285C40.3439 14.6185 40.9551 12.8805 40.9551 11C40.9551 6.28983 37.124 2.47159 32.3981 2.47159Z" fill="url(#paint0_linear_441_265)"/>
<path d="M11.6251 6.81022H10.6855C9.07462 6.81022 8.2692 7.61298 8.2692 8.81712C8.2692 10.1551 8.80615 10.824 10.0143 11.6268L10.954 12.2957L8.2692 16.4433H6.12139L8.67191 12.6971C7.19529 11.6268 6.38987 10.6902 6.38987 8.95091C6.38987 6.81022 7.86648 5.3385 10.6855 5.3385H13.5045V16.4433H11.6251V6.81022Z" fill="url(#paint1_linear_441_265)"/>
<path d="M20.5694 11.0107C20.5694 5.35148 15.9627 0.74939 10.274 0.74939C4.58525 0.74939 0 5.33013 0 11.0107C0 16.6592 4.59597 21.2506 10.274 21.2506C15.952 21.2506 20.5694 16.6592 20.5694 11.0107ZM10.274 19.5101C5.62443 19.5101 1.87481 15.7623 1.87481 11C1.87481 6.24841 5.62443 2.48986 10.274 2.48986C14.9556 2.48986 18.6731 6.25909 18.6731 11C18.6945 15.7729 14.9556 19.5101 10.274 19.5101Z" fill="url(#paint2_linear_441_265)"/>
<path d="M115.915 2.80763L121.709 18.1214H117.481L116.58 15.7045H110.829L109.97 18.1214H106.322L111.988 2.80763H115.915ZM112.116 12.1755H115.271L113.661 7.87657L112.116 12.1755Z" fill="url(#paint3_linear_441_265)"/>
<path d="M47.6379 2.77388H51.9511V11.5215C51.9511 12.5054 52.1657 13.254 52.5949 13.7673C53.0241 14.2806 53.6249 14.5372 54.3974 14.5372C55.1127 14.5372 55.6993 14.2948 56.1571 13.81C56.6149 13.311 56.8438 12.5482 56.8438 11.5215V2.77388H60.7278V11.5215C60.7278 13.7316 60.1628 15.4141 59.0326 16.5691C57.9167 17.724 56.293 18.3015 54.1614 18.3015C53.1457 18.3015 52.2372 18.166 51.4361 17.8951C50.635 17.61 49.9483 17.1965 49.376 16.6546C48.8181 16.0985 48.3889 15.407 48.0885 14.58C47.7881 13.753 47.6379 12.7906 47.6379 11.6926V2.77388Z" fill="url(#paint4_linear_441_265)"/>
<path d="M69.4375 11.0296C69.2372 11.0011 69.0512 10.9797 68.8796 10.9654C68.7079 10.9512 68.5434 10.9441 68.386 10.9441C67.499 10.9441 66.8123 11.1936 66.3259 11.6926C65.8395 12.1917 65.5963 13.0044 65.5963 14.1309V18.0876H61.5191V7.00868H65.4032L65.5105 8.86943H65.5749C65.9468 8.12798 66.4404 7.59329 67.0555 7.26534C67.6707 6.93739 68.3431 6.77342 69.0727 6.77342C69.1299 6.77342 69.1871 6.77342 69.2444 6.77342C69.3016 6.77342 69.366 6.78055 69.4375 6.7948V11.0296Z" fill="url(#paint5_linear_441_265)"/>
<path d="M74.2945 2.77388V8.12086C75.1386 7.23682 76.233 6.79481 77.5777 6.79481C78.2358 6.79481 78.8653 6.91601 79.4661 7.1584C80.067 7.4008 80.5963 7.75726 81.0541 8.2278C81.5119 8.69833 81.8696 9.28293 82.1271 9.98161C82.3989 10.666 82.5348 11.4574 82.5348 12.3557C82.5348 13.311 82.3846 14.1594 82.0841 14.9008C81.798 15.6423 81.4118 16.2625 80.9253 16.7616C80.4389 17.2606 79.881 17.6456 79.2515 17.9165C78.6221 18.1732 77.9712 18.3015 77.2988 18.3015C76.6407 18.3015 76.047 18.1946 75.5177 17.9807C74.9884 17.7525 74.5234 17.4389 74.1228 17.0396L74.0585 18.0876H70.2173V2.77388H74.2945ZM78.3932 12.5482C78.3932 11.8495 78.1929 11.3005 77.7923 10.9013C77.4061 10.502 76.9197 10.3024 76.3331 10.3024C75.7466 10.3024 75.2602 10.5092 74.8739 10.9227C74.4876 11.3362 74.2945 11.8923 74.2945 12.5909C74.2945 13.2896 74.4876 13.8457 74.8739 14.2592C75.2745 14.6584 75.7609 14.8581 76.3331 14.8581C76.934 14.8581 77.4275 14.6513 77.8138 14.2378C78.2001 13.81 78.3932 13.2468 78.3932 12.5482Z" fill="url(#paint6_linear_441_265)"/>
<path d="M86.9503 10.1527C86.3352 10.1527 85.7271 10.2097 85.1263 10.3238C84.5397 10.4379 83.9961 10.5876 83.4954 10.773V7.47922C84.082 7.26534 84.7329 7.10137 85.4482 6.9873C86.1778 6.85897 86.9074 6.79481 87.637 6.79481C88.5955 6.79481 89.4467 6.88749 90.1906 7.07285C90.9345 7.25821 91.5568 7.5719 92.0576 8.01392C92.5583 8.44168 92.9374 9.01202 93.1949 9.72495C93.4524 10.4236 93.5811 11.2934 93.5811 12.3343V18.0876H89.6112C89.5969 17.9593 89.5898 17.8096 89.5898 17.6385V17.0824C89.275 17.4531 88.8602 17.7525 88.3451 17.9807C87.8444 18.1946 87.2221 18.3015 86.4782 18.3015C85.348 18.3015 84.4396 18.0021 83.7529 17.4032C83.0662 16.8043 82.7229 15.9987 82.7229 14.9864C82.7229 14.3447 82.8302 13.7958 83.0448 13.3395C83.2737 12.869 83.5884 12.484 83.989 12.1846C84.4038 11.8709 84.8974 11.6427 85.4696 11.5001C86.0419 11.3433 86.6713 11.2649 87.358 11.2649C87.7872 11.2649 88.1663 11.2934 88.4954 11.3504C88.8387 11.4075 89.1463 11.4788 89.4181 11.5643C89.3036 11.0367 89.039 10.6731 88.6241 10.4735C88.2092 10.2596 87.6513 10.1527 86.9503 10.1527ZM87.9803 15.6066C88.4954 15.6066 88.8673 15.464 89.0962 15.1789C89.3251 14.8794 89.4539 14.5515 89.4825 14.195V13.6175C89.3251 13.5605 89.1463 13.5177 88.946 13.4892C88.76 13.4464 88.5454 13.4251 88.3022 13.4251C87.2579 13.4251 86.7357 13.81 86.7357 14.58C86.7357 14.908 86.8502 15.1646 87.0791 15.35C87.308 15.5211 87.6084 15.6066 87.9803 15.6066Z" fill="url(#paint7_linear_441_265)"/>
<path d="M100.139 10.3955C99.6378 10.3955 99.2372 10.5594 98.9368 10.8874C98.6507 11.2011 98.5076 11.7286 98.5076 12.4701V18.1165H94.4304V7.03756H98.3145L98.4218 8.27806H98.4647C98.7937 7.8503 99.2301 7.50096 99.7737 7.23005C100.332 6.95914 101.004 6.82368 101.791 6.82368C102.363 6.82368 102.892 6.90923 103.379 7.08033C103.88 7.25144 104.302 7.52235 104.645 7.89307C105.003 8.2638 105.282 8.75572 105.482 9.36884C105.682 9.98196 105.782 10.7234 105.782 11.5932V18.1165H101.684V12.577C101.684 11.7785 101.548 11.2153 101.276 10.8874C101.018 10.5594 100.639 10.3955 100.139 10.3955Z" fill="url(#paint8_linear_441_265)"/>
<path d="M120.864 12.7695C120.864 11.8142 121.007 10.9658 121.293 10.2244C121.594 9.48291 121.987 8.86266 122.474 8.36361C122.96 7.86456 123.518 7.48671 124.147 7.23005C124.777 6.95914 125.428 6.82368 126.1 6.82368C126.715 6.82368 127.273 6.91636 127.774 7.10172C128.275 7.27283 128.718 7.52235 129.104 7.8503V2.80275H133.203V18.1165H129.297L129.233 16.8546C128.833 17.3109 128.346 17.6745 127.774 17.9454C127.202 18.202 126.551 18.3304 125.821 18.3304C125.149 18.3304 124.512 18.2092 123.911 17.9668C123.325 17.7244 122.803 17.3679 122.345 16.8974C121.887 16.4269 121.522 15.8494 121.25 15.165C120.993 14.4663 120.864 13.6678 120.864 12.7695ZM129.104 12.5343C129.104 11.8213 128.904 11.2652 128.504 10.866C128.117 10.4525 127.638 10.2457 127.066 10.2457C126.465 10.2457 125.971 10.4596 125.585 10.8874C125.199 11.3009 125.006 11.857 125.006 12.5556C125.006 13.2686 125.199 13.8247 125.585 14.2239C125.986 14.6231 126.479 14.8228 127.066 14.8228C127.652 14.8228 128.139 14.616 128.525 14.2025C128.911 13.789 129.104 13.2329 129.104 12.5343Z" fill="url(#paint9_linear_441_265)"/>
<path d="M137.969 18.3304C137.125 18.3304 136.366 18.2662 135.694 18.1379C135.022 18.0096 134.485 17.8385 134.085 17.6246V14.395C134.542 14.6802 135.129 14.9154 135.844 15.1008C136.574 15.2862 137.332 15.3788 138.119 15.3788C138.662 15.3788 139.063 15.3432 139.32 15.2719C139.592 15.1864 139.728 15.0224 139.728 14.78C139.728 14.6659 139.7 14.5732 139.642 14.5019C139.599 14.4164 139.506 14.3451 139.363 14.2881C139.235 14.231 139.042 14.1883 138.784 14.1597C138.527 14.117 138.183 14.0813 137.754 14.0528C136.438 13.9672 135.472 13.6393 134.857 13.0689C134.256 12.4986 133.956 11.7001 133.956 10.6735C133.956 9.41874 134.406 8.46342 135.308 7.80752C136.209 7.15163 137.504 6.82368 139.192 6.82368C139.907 6.82368 140.572 6.88784 141.187 7.01617C141.817 7.1445 142.282 7.27995 142.582 7.42254V10.4382C142.239 10.2386 141.76 10.0604 141.145 9.90354C140.529 9.73243 139.843 9.64688 139.084 9.64688C138.555 9.64688 138.169 9.68966 137.926 9.77521C137.682 9.86076 137.561 10.0176 137.561 10.2457C137.561 10.3313 137.575 10.4097 137.604 10.481C137.647 10.538 137.725 10.588 137.84 10.6307C137.969 10.6735 138.14 10.7163 138.355 10.7591C138.569 10.7876 138.863 10.8161 139.235 10.8446C140.722 10.9729 141.774 11.3365 142.389 11.9354C143.019 12.5343 143.333 13.3399 143.333 14.3522C143.333 15.6498 142.904 16.6407 142.046 17.3251C141.187 17.9953 139.828 18.3304 137.969 18.3304Z" fill="url(#paint10_linear_441_265)"/>
<defs>
<linearGradient id="paint0_linear_441_265" x1="-67.987" y1="11.0876" x2="143.333" y2="11" gradientUnits="userSpaceOnUse">
<stop stop-color="#D9D9D9"/>
<stop offset="0.5625" stop-color="#292B31"/>
</linearGradient>
<linearGradient id="paint1_linear_441_265" x1="-67.987" y1="11.0876" x2="143.333" y2="11" gradientUnits="userSpaceOnUse">
<stop stop-color="#D9D9D9"/>
<stop offset="0.5625" stop-color="#292B31"/>
</linearGradient>
<linearGradient id="paint2_linear_441_265" x1="-67.987" y1="11.0876" x2="143.333" y2="11" gradientUnits="userSpaceOnUse">
<stop stop-color="#D9D9D9"/>
<stop offset="0.5625" stop-color="#292B31"/>
</linearGradient>
<linearGradient id="paint3_linear_441_265" x1="-67.987" y1="11.0876" x2="143.333" y2="11" gradientUnits="userSpaceOnUse">
<stop stop-color="#D9D9D9"/>
<stop offset="0.5625" stop-color="#292B31"/>
</linearGradient>
<linearGradient id="paint4_linear_441_265" x1="-67.987" y1="11.0876" x2="143.333" y2="11" gradientUnits="userSpaceOnUse">
<stop stop-color="#D9D9D9"/>
<stop offset="0.5625" stop-color="#292B31"/>
</linearGradient>
<linearGradient id="paint5_linear_441_265" x1="-67.987" y1="11.0876" x2="143.333" y2="11" gradientUnits="userSpaceOnUse">
<stop stop-color="#D9D9D9"/>
<stop offset="0.5625" stop-color="#292B31"/>
</linearGradient>
<linearGradient id="paint6_linear_441_265" x1="-67.987" y1="11.0876" x2="143.333" y2="11" gradientUnits="userSpaceOnUse">
<stop stop-color="#D9D9D9"/>
<stop offset="0.5625" stop-color="#292B31"/>
</linearGradient>
<linearGradient id="paint7_linear_441_265" x1="-67.987" y1="11.0876" x2="143.333" y2="11" gradientUnits="userSpaceOnUse">
<stop stop-color="#D9D9D9"/>
<stop offset="0.5625" stop-color="#292B31"/>
</linearGradient>
<linearGradient id="paint8_linear_441_265" x1="-67.987" y1="11.0876" x2="143.333" y2="11" gradientUnits="userSpaceOnUse">
<stop stop-color="#D9D9D9"/>
<stop offset="0.5625" stop-color="#292B31"/>
</linearGradient>
<linearGradient id="paint9_linear_441_265" x1="-67.987" y1="11.0876" x2="143.333" y2="11" gradientUnits="userSpaceOnUse">
<stop stop-color="#D9D9D9"/>
<stop offset="0.5625" stop-color="#292B31"/>
</linearGradient>
<linearGradient id="paint10_linear_441_265" x1="-67.987" y1="11.0876" x2="143.333" y2="11" gradientUnits="userSpaceOnUse">
<stop stop-color="#D9D9D9"/>
<stop offset="0.5625" stop-color="#292B31"/>
</linearGradient>
</defs>
</svg>
