<svg xmlns="http://www.w3.org/2000/svg" style="display: none;">
  <symbol id="logo" viewBox="0 0 172 26">
    <path fill-rule="evenodd" clip-rule="evenodd" d="M38.8778 0.699219C45.6939 0.699219 51.2194 6.20644 51.2194 13C51.2194 19.7935 45.6939 25.3007 38.8778 25.3007C32.0617 25.3007 26.5362 19.7935 26.5362 13C26.5362 6.20645 32.0617 0.699234 38.8778 0.699219ZM38.8778 2.76586C33.2068 2.76587 28.6097 7.34776 28.6097 13C28.6097 15.2565 29.343 17.3422 30.5843 19.0341V15.9051C30.5843 14.881 30.5843 14.369 30.7016 13.8879C30.8056 13.4613 30.9772 13.054 31.2098 12.6812C31.4722 12.2607 31.8389 11.9021 32.5723 11.1849L33.2787 10.494C34.3866 9.41064 34.9407 8.86884 35.4154 8.83477C35.8274 8.8052 36.229 8.97323 36.4964 9.28706C36.8044 9.64869 36.8043 10.4223 36.8043 11.9692V22.0042C36.8044 22.5712 37.2628 23.0315 37.8303 23.0373H37.8515C38.4014 23.0318 38.8487 22.5998 38.8764 22.0573L38.8778 22.0042V7.80625C38.8778 6.24078 38.8777 5.45798 39.1882 5.09562C39.4577 4.78122 39.8621 4.61447 40.2757 4.64701C40.7523 4.68458 41.3075 5.23821 42.4178 6.34549L45.2295 9.14985C45.9461 9.86458 46.3046 10.2222 46.5608 10.6391C46.788 11.0088 46.9553 11.4119 47.0568 11.8334C47.1713 12.3088 47.1712 12.814 47.1712 13.8243V19.0341C48.4126 17.3421 49.1462 15.2566 49.1462 13C49.1462 7.34775 44.5488 2.76586 38.8778 2.76586Z" fill="url(#paint0_linear_155_451)"/>
    <path d="M13.9502 7.97222H12.8226C10.8895 7.97222 9.92304 8.93553 9.92304 10.3805C9.92304 11.986 10.5674 12.7888 12.0171 13.7521L13.1447 14.5548L9.92304 19.5319H7.34567L10.4063 15.0365C8.63435 13.7521 7.66784 12.6282 7.66784 10.541C7.66784 7.97222 9.43978 6.20615 12.8226 6.20615H16.2054V19.5319H13.9502V7.97222Z" fill="url(#paint1_linear_155_451)"/>
    <path d="M24.6832 13.0128C24.6832 6.22173 19.1552 0.699219 12.3288 0.699219C5.5023 0.699219 0 6.19611 0 13.0128C0 19.791 5.51516 25.3007 12.3288 25.3007C19.1424 25.3007 24.6832 19.791 24.6832 13.0128ZM12.3288 23.2121C6.74932 23.2121 2.24977 18.7147 2.24977 13C2.24977 7.29805 6.74932 2.78778 12.3288 2.78778C17.9468 2.78778 22.4077 7.31086 22.4077 13C22.4335 18.7275 17.9468 23.2121 12.3288 23.2121Z" fill="url(#paint2_linear_155_451)"/>
    <path d="M139.098 3.16911L146.05 21.5456H140.977L139.896 18.6454H132.995L131.965 21.5456H127.587L134.385 3.16911H139.098ZM134.54 14.4106H138.325L136.394 9.25183L134.54 14.4106Z" fill="url(#paint3_linear_155_451)"/>
    <path d="M57.1654 3.12861H62.3413V13.6258C62.3413 14.8064 62.5989 15.7047 63.1139 16.3207C63.6289 16.9366 64.3499 17.2446 65.2769 17.2446C66.1353 17.2446 66.8391 16.9538 67.3885 16.372C67.9378 15.7731 68.2125 14.8577 68.2125 13.6258V3.12861H72.8734V13.6258C72.8734 16.2779 72.1953 18.2969 70.8391 19.6829C69.5001 21.0688 67.5516 21.7618 64.9937 21.7618C63.7748 21.7618 62.6847 21.5992 61.7233 21.2741C60.762 20.9319 59.9379 20.4357 59.2512 19.7855C58.5817 19.1182 58.0667 18.2884 57.7062 17.296C57.3457 16.3036 57.1654 15.1486 57.1654 13.8311V3.12861Z" fill="url(#paint4_linear_155_451)"/>
    <path d="M83.325 13.0355C83.0847 13.0013 82.8615 12.9756 82.6555 12.9585C82.4495 12.9414 82.2521 12.9328 82.0632 12.9328C80.9988 12.9328 80.1748 13.2323 79.5911 13.8311C79.0075 14.43 78.7156 15.4053 78.7156 16.757V21.5051H73.823V8.21037H78.4839L78.6126 10.4433H78.6899C79.1362 9.55353 79.7285 8.91189 80.4667 8.51836C81.2049 8.12482 82.0117 7.92805 82.8872 7.92805C82.9559 7.92805 83.0246 7.92805 83.0933 7.92805C83.1619 7.92805 83.2392 7.93661 83.325 7.95372V13.0355Z" fill="url(#paint5_linear_155_451)"/>
    <path d="M89.1534 3.12861V9.54498C90.1663 8.48414 91.4796 7.95372 93.0933 7.95372C93.883 7.95372 94.6384 8.09916 95.3594 8.39003C96.0804 8.68091 96.7156 9.10867 97.2649 9.67331C97.8143 10.2379 98.2435 10.9395 98.5525 11.7779C98.8787 12.5992 99.0417 13.5488 99.0417 14.6267C99.0417 15.7731 98.8615 16.7912 98.501 17.6809C98.1576 18.5707 97.6941 19.315 97.1104 19.9138C96.5267 20.5127 95.8572 20.9747 95.1019 21.2998C94.3465 21.6078 93.5654 21.7618 92.7586 21.7618C91.9689 21.7618 91.2564 21.6334 90.6212 21.3768C89.986 21.103 89.4281 20.7266 88.9474 20.2475L88.8702 21.5051H84.2608V3.12861H89.1534ZM94.0718 14.8577C94.0718 14.0193 93.8315 13.3606 93.3508 12.8815C92.8873 12.4024 92.3036 12.1629 91.5998 12.1629C90.8959 12.1629 90.3122 12.411 89.8487 12.9072C89.3852 13.4034 89.1534 14.0707 89.1534 14.9091C89.1534 15.7475 89.3852 16.4148 89.8487 16.911C90.3294 17.3901 90.9131 17.6296 91.5998 17.6296C92.3208 17.6296 92.9131 17.3815 93.3766 16.8853C93.8401 16.372 94.0718 15.6961 94.0718 14.8577Z" fill="url(#paint6_linear_155_451)"/>
    <path d="M104.34 11.9832C103.602 11.9832 102.873 12.0516 102.152 12.1885C101.448 12.3254 100.795 12.5051 100.195 12.7275V8.77501C100.898 8.51836 101.679 8.32159 102.538 8.18471C103.413 8.03071 104.289 7.95372 105.164 7.95372C106.315 7.95372 107.336 8.06494 108.229 8.28737C109.121 8.5098 109.868 8.88623 110.469 9.41665C111.07 9.92996 111.525 10.6144 111.834 11.4699C112.143 12.3083 112.297 13.352 112.297 14.6011V21.5051H107.533C107.516 21.3511 107.508 21.1714 107.508 20.9661V20.2988C107.13 20.7437 106.632 21.103 106.014 21.3768C105.413 21.6334 104.667 21.7618 103.774 21.7618C102.418 21.7618 101.328 21.4024 100.504 20.6838C99.6795 19.9652 99.2675 18.9984 99.2675 17.7836C99.2675 17.0136 99.3962 16.3549 99.6537 15.8074C99.9284 15.2427 100.306 14.7807 100.787 14.4214C101.285 14.045 101.877 13.7712 102.564 13.6001C103.25 13.4119 104.006 13.3178 104.83 13.3178C105.345 13.3178 105.8 13.352 106.194 13.4205C106.606 13.4889 106.976 13.5745 107.302 13.6771C107.164 13.044 106.847 12.6077 106.349 12.3682C105.851 12.1115 105.182 11.9832 104.34 11.9832ZM105.576 18.5279C106.194 18.5279 106.641 18.3568 106.915 18.0146C107.19 17.6553 107.345 17.2617 107.379 16.834V16.141C107.19 16.0726 106.976 16.0212 106.735 15.987C106.512 15.9357 106.255 15.91 105.963 15.91C104.709 15.91 104.083 16.372 104.083 17.296C104.083 17.6895 104.22 17.9975 104.495 18.2199C104.77 18.4252 105.13 18.5279 105.576 18.5279Z" fill="url(#paint7_linear_155_451)"/>
    <path d="M120.166 12.2745C119.565 12.2745 119.085 12.4713 118.724 12.8648C118.381 13.2412 118.209 13.8743 118.209 14.7641V21.5397H113.317V8.24502H117.977L118.106 9.73362H118.158C118.553 9.22031 119.076 8.80111 119.728 8.47601C120.398 8.15091 121.205 7.98837 122.149 7.98837C122.836 7.98837 123.471 8.09103 124.055 8.29635C124.655 8.50167 125.162 8.82677 125.574 9.27164C126.003 9.71651 126.338 10.3068 126.578 11.0426C126.819 11.7783 126.939 12.668 126.939 13.7118V21.5397H122.02V14.8924C122.02 13.9342 121.857 13.2583 121.531 12.8648C121.222 12.4713 120.767 12.2745 120.166 12.2745Z" fill="url(#paint8_linear_155_451)"/>
    <path d="M145.037 15.1234C145.037 13.977 145.209 12.9589 145.552 12.0692C145.912 11.1794 146.385 10.4351 146.968 9.83628C147.552 9.23742 148.221 8.784 148.977 8.47601C149.732 8.15092 150.513 7.98837 151.32 7.98837C152.058 7.98837 152.728 8.09959 153.329 8.32202C153.93 8.52734 154.462 8.82677 154.925 9.22031V3.16326H159.844V21.5397H155.157L155.08 20.0255C154.599 20.573 154.015 21.0093 153.329 21.3344C152.642 21.6424 151.861 21.7964 150.985 21.7964C150.179 21.7964 149.415 21.651 148.694 21.3601C147.99 21.0692 147.363 20.6415 146.814 20.0768C146.264 19.5122 145.827 18.8192 145.5 17.9979C145.191 17.1595 145.037 16.2013 145.037 15.1234ZM154.925 14.8411C154.925 13.9855 154.685 13.3182 154.204 12.8391C153.741 12.3429 153.166 12.0948 152.479 12.0948C151.758 12.0948 151.166 12.3515 150.702 12.8648C150.239 13.361 150.007 14.0283 150.007 14.8667C150.007 15.7222 150.239 16.3895 150.702 16.8686C151.183 17.3477 151.775 17.5873 152.479 17.5873C153.183 17.5873 153.766 17.3392 154.23 16.843C154.693 16.3468 154.925 15.6795 154.925 14.8411Z" fill="url(#paint9_linear_155_451)"/>
    <path d="M165.562 21.7964C164.549 21.7964 163.64 21.7194 162.833 21.5654C162.026 21.4114 161.382 21.2061 160.901 20.9494V17.0739C161.451 17.4162 162.155 17.6985 163.013 17.9209C163.889 18.1433 164.798 18.2546 165.743 18.2546C166.395 18.2546 166.876 18.2118 167.185 18.1262C167.511 18.0236 167.674 17.8268 167.674 17.5359C167.674 17.399 167.64 17.2878 167.571 17.2023C167.519 17.0996 167.408 17.0141 167.236 16.9456C167.082 16.8772 166.85 16.8259 166.541 16.7916C166.232 16.7403 165.82 16.6975 165.305 16.6633C163.725 16.5606 162.567 16.1671 161.828 15.4827C161.107 14.7983 160.747 13.8401 160.747 12.6082C160.747 11.1024 161.288 9.95605 162.369 9.16898C163.451 8.3819 165.004 7.98837 167.03 7.98837C167.888 7.98837 168.687 8.06536 169.425 8.21935C170.18 8.37335 170.738 8.5359 171.099 8.707V12.3258C170.687 12.0863 170.112 11.8724 169.373 11.6842C168.635 11.4789 167.811 11.3762 166.901 11.3762C166.266 11.3762 165.803 11.4275 165.511 11.5302C165.219 11.6329 165.073 11.8211 165.073 12.0948C165.073 12.1975 165.09 12.2916 165.125 12.3772C165.176 12.4456 165.27 12.5055 165.408 12.5568C165.562 12.6082 165.768 12.6595 166.026 12.7108C166.283 12.745 166.635 12.7793 167.082 12.8135C168.867 12.9675 170.129 13.4038 170.867 14.1224C171.622 14.8411 172 15.8078 172 17.0226C172 18.5797 171.485 19.7688 170.455 20.5901C169.425 21.3943 167.794 21.7964 165.562 21.7964Z" fill="url(#paint10_linear_155_451)"/>
    <defs>
    <linearGradient id="paint0_linear_155_451" x1="-81.5844" y1="13.1051" x2="172" y2="13" gradientUnits="userSpaceOnUse">
    <stop stop-color="#D9D9D9"/>
    <stop offset="0.5625" stop-color="#292B31"/>
    </linearGradient>
    <linearGradient id="paint1_linear_155_451" x1="-81.5844" y1="13.1051" x2="172" y2="13" gradientUnits="userSpaceOnUse">
    <stop stop-color="#D9D9D9"/>
    <stop offset="0.5625" stop-color="#292B31"/>
    </linearGradient>
    <linearGradient id="paint2_linear_155_451" x1="-81.5844" y1="13.1051" x2="172" y2="13" gradientUnits="userSpaceOnUse">
    <stop stop-color="#D9D9D9"/>
    <stop offset="0.5625" stop-color="#292B31"/>
    </linearGradient>
    <linearGradient id="paint3_linear_155_451" x1="-81.5844" y1="13.1051" x2="172" y2="13" gradientUnits="userSpaceOnUse">
    <stop stop-color="#D9D9D9"/>
    <stop offset="0.5625" stop-color="#292B31"/>
    </linearGradient>
    <linearGradient id="paint4_linear_155_451" x1="-81.5844" y1="13.1051" x2="172" y2="13" gradientUnits="userSpaceOnUse">
    <stop stop-color="#D9D9D9"/>
    <stop offset="0.5625" stop-color="#292B31"/>
    </linearGradient>
    <linearGradient id="paint5_linear_155_451" x1="-81.5844" y1="13.1051" x2="172" y2="13" gradientUnits="userSpaceOnUse">
    <stop stop-color="#D9D9D9"/>
    <stop offset="0.5625" stop-color="#292B31"/>
    </linearGradient>
    <linearGradient id="paint6_linear_155_451" x1="-81.5844" y1="13.1051" x2="172" y2="13" gradientUnits="userSpaceOnUse">
    <stop stop-color="#D9D9D9"/>
    <stop offset="0.5625" stop-color="#292B31"/>
    </linearGradient>
    <linearGradient id="paint7_linear_155_451" x1="-81.5844" y1="13.1051" x2="172" y2="13" gradientUnits="userSpaceOnUse">
    <stop stop-color="#D9D9D9"/>
    <stop offset="0.5625" stop-color="#292B31"/>
    </linearGradient>
    <linearGradient id="paint8_linear_155_451" x1="-81.5844" y1="13.1051" x2="172" y2="13" gradientUnits="userSpaceOnUse">
    <stop stop-color="#D9D9D9"/>
    <stop offset="0.5625" stop-color="#292B31"/>
    </linearGradient>
    <linearGradient id="paint9_linear_155_451" x1="-81.5844" y1="13.1051" x2="172" y2="13" gradientUnits="userSpaceOnUse">
    <stop stop-color="#D9D9D9"/>
    <stop offset="0.5625" stop-color="#292B31"/>
    </linearGradient>
    <linearGradient id="paint10_linear_155_451" x1="-81.5844" y1="13.1051" x2="172" y2="13" gradientUnits="userSpaceOnUse">
    <stop stop-color="#D9D9D9"/>
    <stop offset="0.5625" stop-color="#292B31"/>
    </linearGradient>
    </defs>
  </symbol>
  <symbol id="icon-1" viewBox="0 0 64 64">
    <path d="M31.7502 0.5C49.1472 0.500026 63.2502 14.6031 63.2502 32C63.2502 49.3969 49.1471 63.5 31.7502 63.5C24.453 63.5 17.7354 61.0184 12.395 56.8535C21.3454 53.4538 29.6759 44.4751 35.9779 32.9283H20.5899L17.5644 37.8316H25.2699C21.0771 43.9301 16.7636 47.6905 14.1213 47.6905C10.9393 47.6905 12.1913 41.2743 17.1468 32.6151C22.1545 23.9038 28.0493 17.4875 31.4921 17.4875C34.1522 17.4878 33.4218 23.6954 29.979 29.8505H37.1778C45.0023 13.3147 39.0557 6.89852 32.3266 6.89844C21.4244 6.89844 9.16588 17.9051 1.44564 32.0415C1.05069 32.7652 0.677281 33.4809 0.325447 34.1876C0.275864 33.4648 0.250245 32.7354 0.250244 32C0.250244 14.6031 14.3533 0.5 31.7502 0.5ZM53.8179 23.6951C47.2974 23.6952 39.8901 29.5897 35.9257 37.675C31.8569 45.7082 33.1611 51.5505 39.9423 51.5506C46.9323 51.5506 53.8179 45.7604 57.7823 37.675C61.8511 29.4853 60.3905 23.6951 53.8179 23.6951ZM52.9833 30.1115C54.5482 30.1115 54.2351 33.2411 51.6269 37.6228C49.0709 41.8481 46.3061 45.0825 44.5847 45.0825C42.9679 45.0822 43.281 41.9522 45.9412 37.6228C48.4972 33.3454 51.2619 30.1115 52.9833 30.1115Z" fill="#292B31"/>

  </symbol>
  <symbol id="icon-2" viewBox="0 0 64 64">
    <path d="M22.7476 50.3721L34.6646 52.4707L45.856 38.4082L42.1118 54.2334L56.7388 51.4463C50.9716 58.7853 42.0154 63.5 31.9575 63.5C23.9669 63.5 16.673 60.5224 11.1196 55.6191L27.9712 29.3799L22.7476 50.3721ZM31.9575 0.5C49.3545 0.5 63.4575 14.6031 63.4575 32C63.4575 35.0135 63.0329 37.9278 62.2427 40.6875L54.9077 42.3643L58.8804 25.7158L48.731 18.9277L36.5229 34.2783L41.5601 14.0752L27.605 4.75293L2.68018 43.6426C1.24666 40.0409 0.457528 36.1127 0.45752 32C0.45752 14.6031 14.5606 0.500044 31.9575 0.5Z" fill="#292B31"/>
  </symbol>
  <symbol id="icon-3" viewBox="0 0 64 64">
    <path d="M31.345 0.5C48.6419 0.500048 62.6643 14.5224 62.6643 31.8193C62.6641 49.1162 48.6418 63.1376 31.345 63.1377C14.0481 63.1377 0.0258055 49.1162 0.0256348 31.8193C0.0256348 14.5223 14.048 0.5 31.345 0.5ZM31.9573 12.9971C22.0817 12.9971 14.2093 21.2088 14.2092 31.1514C14.2092 41.7671 23.0468 50.6523 34.3333 50.6523C39.7313 50.6523 44.6839 48.608 48.4631 45.2451L45.6272 41.9707C42.5974 44.6681 38.6436 46.2949 34.3303 46.2949C25.2826 46.2948 18.5032 39.2286 18.5032 31.1514C18.5033 23.5561 24.5086 17.3537 31.9543 17.3535C38.9814 17.3535 44.052 22.8482 44.052 28.7969C44.052 34.373 39.6894 38.8965 34.3303 38.8965C29.4269 38.8964 25.9661 35.1502 25.9661 31.1514C25.9661 27.5623 28.7193 24.7529 31.9573 24.7529C34.8229 24.753 36.5911 26.8595 36.5911 28.7969C36.5911 30.4784 35.4178 31.4941 34.3303 31.4941C33.9459 31.4941 33.799 31.4123 33.6448 31.3154C33.995 30.8609 34.1685 30.2693 34.0803 29.6533C33.9062 28.4639 32.8139 27.642 31.6409 27.8184C30.6344 27.97 29.9949 28.6603 29.679 29.1719C29.3214 29.7456 29.1302 30.4361 29.1301 31.1514C29.1301 34.0052 31.7684 35.8505 34.3303 35.8506C38.0729 35.8531 40.887 32.5574 40.887 28.7969C40.887 24.1944 36.9318 20.3966 31.9573 20.3965C26.1794 20.3965 21.6702 25.3294 21.6702 31.1514C21.6702 37.7483 27.2474 43.25 34.3333 43.25C42.166 43.2498 48.3508 36.6725 48.3508 28.7939C48.3506 20.3244 41.2399 12.9972 31.9573 12.9971Z" fill="#292B31"/>
  </symbol>
  <symbol id="icon-4" viewBox="0 0 63 64">
    <path d="M31.5532 0.5C48.8501 0.500089 62.8716 14.5224 62.8716 31.8193C62.8714 49.1161 48.85 63.1376 31.5532 63.1377C14.2564 63.1377 0.234114 49.1161 0.233887 31.8193C0.233887 14.5224 14.2562 0.5 31.5532 0.5ZM42.0171 17.04C36.7325 16.6302 35.0082 18.843 32.5874 31.6016C32.5779 31.5565 31.8174 27.9972 26.5239 21.9805C21.1967 15.9255 18.3704 17.1959 15.9116 19.832C12.9084 23.0493 14.1077 28.9461 16.3892 34.3408C17.8388 37.7722 21.6676 43.9923 26.5239 46.873C33.2214 50.8426 42.4392 48.6344 46.6167 36.2119C50.9529 23.3252 46.1489 17.3608 42.0171 17.04Z" fill="#292B31"/>
  </symbol>
  <symbol id="arrow-left" viewBox="0 0 28 28">
    <path d="M14.2857 27.5L11.1293 24.4196L19.415 16.2634H0V11.7366L19.415 11.7366L11.1293 3.59375L14.2857 0.5L28 14L14.2857 27.5Z" fill="#E8E9EB"/>
  </symbol>
  <symbol id="arrow-down" viewBox="0 0 27 28">
    <path d="M0 14.2857L3.08036 11.1293L11.2366 19.415L11.2366 0H15.7634L15.7634 19.415L23.9062 11.1293L27 14.2857L13.5 28L0 14.2857Z" fill="#292B31"/>
  </symbol>
  <symbol id="open" viewBox="0 0 16 17">
    <path d="M6.23206 16.12V9.72001H0.216064V6.71201H6.23206V0.312012H9.43206V6.71201H15.4801V9.72001H9.43206V16.12H6.23206Z" fill="inherit" fill-opacity="0.5"/>
  </symbol>
</svg>
