<svg xmlns="http://www.w3.org/2000/svg" style="display: none;">
  <symbol id="icon-1" viewBox="0 0 64 64">
    <path d="M31.7502 0.5C49.1472 0.500026 63.2502 14.6031 63.2502 32C63.2502 49.3969 49.1471 63.5 31.7502 63.5C24.453 63.5 17.7354 61.0184 12.395 56.8535C21.3454 53.4538 29.6759 44.4751 35.9779 32.9283H20.5899L17.5644 37.8316H25.2699C21.0771 43.9301 16.7636 47.6905 14.1213 47.6905C10.9393 47.6905 12.1913 41.2743 17.1468 32.6151C22.1545 23.9038 28.0493 17.4875 31.4921 17.4875C34.1522 17.4878 33.4218 23.6954 29.979 29.8505H37.1778C45.0023 13.3147 39.0557 6.89852 32.3266 6.89844C21.4244 6.89844 9.16588 17.9051 1.44564 32.0415C1.05069 32.7652 0.677281 33.4809 0.325447 34.1876C0.275864 33.4648 0.250245 32.7354 0.250244 32C0.250244 14.6031 14.3533 0.5 31.7502 0.5ZM53.8179 23.6951C47.2974 23.6952 39.8901 29.5897 35.9257 37.675C31.8569 45.7082 33.1611 51.5505 39.9423 51.5506C46.9323 51.5506 53.8179 45.7604 57.7823 37.675C61.8511 29.4853 60.3905 23.6951 53.8179 23.6951ZM52.9833 30.1115C54.5482 30.1115 54.2351 33.2411 51.6269 37.6228C49.0709 41.8481 46.3061 45.0825 44.5847 45.0825C42.9679 45.0822 43.281 41.9522 45.9412 37.6228C48.4972 33.3454 51.2619 30.1115 52.9833 30.1115Z" fill="#292B31"/>

  </symbol>
  <symbol id="icon-2" viewBox="0 0 64 64">
    <path d="M22.7476 50.3721L34.6646 52.4707L45.856 38.4082L42.1118 54.2334L56.7388 51.4463C50.9716 58.7853 42.0154 63.5 31.9575 63.5C23.9669 63.5 16.673 60.5224 11.1196 55.6191L27.9712 29.3799L22.7476 50.3721ZM31.9575 0.5C49.3545 0.5 63.4575 14.6031 63.4575 32C63.4575 35.0135 63.0329 37.9278 62.2427 40.6875L54.9077 42.3643L58.8804 25.7158L48.731 18.9277L36.5229 34.2783L41.5601 14.0752L27.605 4.75293L2.68018 43.6426C1.24666 40.0409 0.457528 36.1127 0.45752 32C0.45752 14.6031 14.5606 0.500044 31.9575 0.5Z" fill="#292B31"/>
  </symbol>
  <symbol id="icon-3" viewBox="0 0 64 64">
    <path d="M31.345 0.5C48.6419 0.500048 62.6643 14.5224 62.6643 31.8193C62.6641 49.1162 48.6418 63.1376 31.345 63.1377C14.0481 63.1377 0.0258055 49.1162 0.0256348 31.8193C0.0256348 14.5223 14.048 0.5 31.345 0.5ZM31.9573 12.9971C22.0817 12.9971 14.2093 21.2088 14.2092 31.1514C14.2092 41.7671 23.0468 50.6523 34.3333 50.6523C39.7313 50.6523 44.6839 48.608 48.4631 45.2451L45.6272 41.9707C42.5974 44.6681 38.6436 46.2949 34.3303 46.2949C25.2826 46.2948 18.5032 39.2286 18.5032 31.1514C18.5033 23.5561 24.5086 17.3537 31.9543 17.3535C38.9814 17.3535 44.052 22.8482 44.052 28.7969C44.052 34.373 39.6894 38.8965 34.3303 38.8965C29.4269 38.8964 25.9661 35.1502 25.9661 31.1514C25.9661 27.5623 28.7193 24.7529 31.9573 24.7529C34.8229 24.753 36.5911 26.8595 36.5911 28.7969C36.5911 30.4784 35.4178 31.4941 34.3303 31.4941C33.9459 31.4941 33.799 31.4123 33.6448 31.3154C33.995 30.8609 34.1685 30.2693 34.0803 29.6533C33.9062 28.4639 32.8139 27.642 31.6409 27.8184C30.6344 27.97 29.9949 28.6603 29.679 29.1719C29.3214 29.7456 29.1302 30.4361 29.1301 31.1514C29.1301 34.0052 31.7684 35.8505 34.3303 35.8506C38.0729 35.8531 40.887 32.5574 40.887 28.7969C40.887 24.1944 36.9318 20.3966 31.9573 20.3965C26.1794 20.3965 21.6702 25.3294 21.6702 31.1514C21.6702 37.7483 27.2474 43.25 34.3333 43.25C42.166 43.2498 48.3508 36.6725 48.3508 28.7939C48.3506 20.3244 41.2399 12.9972 31.9573 12.9971Z" fill="#292B31"/>
  </symbol>
  <symbol id="icon-4" viewBox="0 0 63 64">
    <path d="M31.5532 0.5C48.8501 0.500089 62.8716 14.5224 62.8716 31.8193C62.8714 49.1161 48.85 63.1376 31.5532 63.1377C14.2564 63.1377 0.234114 49.1161 0.233887 31.8193C0.233887 14.5224 14.2562 0.5 31.5532 0.5ZM42.0171 17.04C36.7325 16.6302 35.0082 18.843 32.5874 31.6016C32.5779 31.5565 31.8174 27.9972 26.5239 21.9805C21.1967 15.9255 18.3704 17.1959 15.9116 19.832C12.9084 23.0493 14.1077 28.9461 16.3892 34.3408C17.8388 37.7722 21.6676 43.9923 26.5239 46.873C33.2214 50.8426 42.4392 48.6344 46.6167 36.2119C50.9529 23.3252 46.1489 17.3608 42.0171 17.04Z" fill="#292B31"/>
  </symbol>
  <symbol id="arrow-left" viewBox="0 0 28 28">
    <path d="M14.2857 27.5L11.1293 24.4196L19.415 16.2634H0V11.7366L19.415 11.7366L11.1293 3.59375L14.2857 0.5L28 14L14.2857 27.5Z" fill="#E8E9EB"/>
  </symbol>
  <symbol id="arrow-down" viewBox="0 0 27 28">
    <path d="M0 14.2857L3.08036 11.1293L11.2366 19.415L11.2366 0H15.7634L15.7634 19.415L23.9062 11.1293L27 14.2857L13.5 28L0 14.2857Z" fill="#292B31"/>
  </symbol>
  <symbol id="open" viewBox="0 0 16 17">
    <path d="M6.23206 16.12V9.72001H0.216064V6.71201H6.23206V0.312012H9.43206V6.71201H15.4801V9.72001H9.43206V16.12H6.23206Z" fill="inherit" fill-opacity="0.5"/>
  </symbol>
  <symbol id="telegram" viewBox="0 0 20 17">
    <path d="M19.9413 1.57619L16.9368 15.9795C16.7077 17.0036 16.1112 17.236 15.263 16.7704L10.6762 13.3268L8.38313 15.4909C8.27512 15.634 8.13614 15.7506 7.97722 15.8308C7.8183 15.9111 7.64355 15.9544 7.46536 15.9558L7.78665 11.3017L16.2715 3.50636C16.6616 3.18036 16.2715 2.99467 15.7212 3.31997L5.30991 9.95166L0.723811 8.51084C-0.262069 8.20857 -0.28546 7.5105 0.930206 7.04489L18.6114 0.0641617C19.4831 -0.192031 20.2164 0.320354 19.9413 1.57688V1.57619Z" fill="#292B31"/>
  </symbol>

  <symbol id="arrow-program--invert" viewBox="0 0 27 27">
    <path d="M13.5 0C20.9558 0 27 6.04416 27 13.5C27 20.9558 20.9558 27 13.5 27C6.04416 27 0 20.9558 0 13.5C0 6.04416 6.04416 0 13.5 0ZM12.3252 9.44727L15.7148 12.7783H7.77246V14.6309H15.7148L12.3252 17.9668L13.6172 19.2275L19.2275 13.7041L13.6172 8.18164L12.3252 9.44727Z" fill="url(#paint0_linear_820_1229)"/>
    <defs>
    <linearGradient id="paint0_linear_820_1229" x1="13.5" y1="27" x2="13.5" y2="0" gradientUnits="userSpaceOnUse">
    <stop stop-color="white"/>
    <stop offset="1" stop-color="#D4D4D4"/>
    </linearGradient>
    </defs>
  </symbol>
  <symbol id="arrow-program" viewBox="0 0 27 27">
    <path d="M13.5 0C20.9558 0 27 6.04416 27 13.5C27 20.9558 20.9558 27 13.5 27C6.04416 27 0 20.9558 0 13.5C0 6.04416 6.04416 0 13.5 0ZM12.3252 9.44727L15.7148 12.7783H7.77246V14.6309H15.7148L12.3252 17.9668L13.6172 19.2275L19.2275 13.7041L13.6172 8.18164L12.3252 9.44727Z" fill="url(#paint0_linear_820_1244)"/>
    <defs>
    <linearGradient id="paint0_linear_820_1244" x1="13.5" y1="35.1" x2="13.5" y2="-3.15" gradientUnits="userSpaceOnUse">
    <stop stop-color="#31333A"/>
    <stop offset="1" stop-color="#D4D4D4"/>
    </linearGradient>
    </defs>
  </symbol>
</svg>
